<svg xmlns="http://www.w3.org/2000/svg" xmlns:xlink="http://www.w3.org/1999/xlink" width="286" zoomAndPan="magnify" viewBox="0 0 214.5 160.499995" height="214" preserveAspectRatio="xMidYMid meet" version="1.2"><g id="ab69551507"><path style=" stroke:none;fill-rule:nonzero;fill:#000000;fill-opacity:1;" d="M 105.746094 6.285156 C 116.914062 4.550781 125.261719 20.605469 115.796875 28.21875 C 119.972656 34.585938 126.402344 41.75 131.179688 47.824219 L 142.273438 61.949219 C 145.464844 66.042969 148.433594 70.738281 152.730469 73.503906 C 160.238281 78.335938 170.34375 76.960938 176.074219 70.097656 C 180.671875 64.59375 186.972656 57.089844 190.757812 51.148438 C 184.257812 45.535156 185.234375 34.59375 192.671875 30.171875 C 207.71875 21.21875 220.769531 44.046875 205.910156 52.621094 C 205.453125 53.847656 204.4375 59.863281 204.125 61.46875 L 196.820312 100.667969 C 194.460938 114.355469 193.945312 113.160156 181.460938 113.152344 L 34.289062 113.152344 C 29.535156 113.15625 20.347656 114.589844 18.445312 108.941406 C 17.855469 107.195312 17.503906 104.449219 17.167969 102.515625 L 9.558594 60.257812 C 9.101562 57.789062 8.722656 55.4375 8.15625 52.980469 C 7.492188 52.269531 6.320312 51.457031 5.554688 50.75 C -2.558594 43.34375 2.5625 28.785156 13.796875 28.339844 C 25.859375 27.867188 31.847656 41.667969 22.976562 51.148438 C 28.386719 57.992188 36.714844 72.085938 44.570312 74.972656 C 58.164062 80.472656 65.734375 69.390625 72.71875 60.363281 L 93.328125 34.003906 C 94.734375 32.226562 96.695312 30.035156 97.867188 28.21875 C 89.945312 20.621094 94.703125 7.25 105.746094 6.285156 Z M 105.746094 6.285156 "/><path style=" stroke:none;fill-rule:nonzero;fill:#000000;fill-opacity:1;" d="M 28.757812 127.054688 L 180.527344 127.0625 C 183.488281 127.066406 187.042969 126.527344 189.375 128.625 C 192.78125 131.691406 191.667969 138.015625 191.699219 142.382812 C 191.699219 148.226562 192.308594 152.703125 185.007812 152.992188 L 33.382812 152.996094 C 28.113281 152.992188 21.867188 153.972656 21.871094 146.4375 C 21.863281 142.585938 21.886719 138.738281 21.90625 134.882812 C 21.925781 129.675781 23.285156 127.128906 28.757812 127.054688 Z M 28.757812 127.054688 "/></g></svg>