<svg xmlns="http://www.w3.org/2000/svg" xmlns:xlink="http://www.w3.org/1999/xlink" width="1080" zoomAndPan="magnify" viewBox="0 0 810 599.999999" height="800" preserveAspectRatio="xMidYMid meet" version="1.2"><defs><clipPath id="e3c47d5358"><path d="M 397.964844 386.625 L 412.214844 386.625 L 412.214844 400.875 L 397.964844 400.875 Z M 397.964844 386.625 "/></clipPath><clipPath id="50b1e00b2b"><path d="M 131 483 L 683 483 L 683 566.703125 L 131 566.703125 Z M 131 483 "/></clipPath><clipPath id="6d033354c1"><path d="M 6 33.453125 L 804 33.453125 L 804 456 L 6 456 Z M 6 33.453125 "/></clipPath></defs><g id="752a8fb18e"><g clip-rule="nonzero" clip-path="url(#e3c47d5358)"><path style=" stroke:none;fill-rule:nonzero;fill:#000000;fill-opacity:1;" d="M 412.214844 393.75 C 412.214844 394.21875 412.167969 394.679688 412.074219 395.140625 C 411.984375 395.597656 411.851562 396.042969 411.671875 396.476562 C 411.492188 396.90625 411.273438 397.320312 411.011719 397.707031 C 410.753906 398.097656 410.457031 398.457031 410.125 398.789062 C 409.796875 399.117188 409.433594 399.414062 409.046875 399.671875 C 408.65625 399.933594 408.246094 400.152344 407.816406 400.332031 C 407.382812 400.511719 406.9375 400.644531 406.476562 400.738281 C 406.019531 400.828125 405.554688 400.875 405.089844 400.875 C 404.621094 400.875 404.15625 400.828125 403.699219 400.738281 C 403.238281 400.644531 402.792969 400.511719 402.359375 400.332031 C 401.929688 400.152344 401.519531 399.933594 401.128906 399.671875 C 400.742188 399.414062 400.378906 399.117188 400.050781 398.789062 C 399.71875 398.457031 399.421875 398.097656 399.164062 397.707031 C 398.902344 397.320312 398.683594 396.90625 398.503906 396.476562 C 398.328125 396.042969 398.191406 395.597656 398.101562 395.140625 C 398.007812 394.679688 397.964844 394.21875 397.964844 393.75 C 397.964844 393.28125 398.007812 392.816406 398.101562 392.359375 C 398.191406 391.898438 398.328125 391.453125 398.503906 391.023438 C 398.683594 390.589844 398.902344 390.179688 399.164062 389.789062 C 399.421875 389.402344 399.71875 389.042969 400.050781 388.710938 C 400.378906 388.378906 400.742188 388.085938 401.128906 387.824219 C 401.519531 387.566406 401.929688 387.34375 402.359375 387.167969 C 402.792969 386.988281 403.238281 386.851562 403.699219 386.761719 C 404.15625 386.667969 404.621094 386.625 405.089844 386.625 C 405.554688 386.625 406.019531 386.667969 406.476562 386.761719 C 406.9375 386.851562 407.382812 386.988281 407.816406 387.167969 C 408.246094 387.34375 408.65625 387.566406 409.046875 387.824219 C 409.433594 388.085938 409.796875 388.378906 410.125 388.710938 C 410.457031 389.042969 410.753906 389.402344 411.011719 389.789062 C 411.273438 390.179688 411.492188 390.589844 411.671875 391.023438 C 411.851562 391.453125 411.984375 391.898438 412.074219 392.359375 C 412.167969 392.816406 412.214844 393.28125 412.214844 393.75 Z M 412.214844 393.75 "/></g><g clip-rule="nonzero" clip-path="url(#50b1e00b2b)"><path style=" stroke:none;fill-rule:nonzero;fill:#000000;fill-opacity:1;" d="M 131.367188 483.007812 L 151.941406 566.65625 L 662.042969 566.65625 L 682.777344 483.007812 Z M 131.367188 483.007812 "/></g><g clip-rule="nonzero" clip-path="url(#6d033354c1)"><path style=" stroke:none;fill-rule:nonzero;fill:#000000;fill-opacity:1;" d="M 803.941406 140.863281 C 803.941406 166.289062 783.34375 186.890625 757.925781 186.890625 C 757.347656 186.890625 756.773438 186.820312 756.195312 186.796875 L 689.628906 455.324219 L 124.5625 455.324219 L 58.457031 186.425781 C 56.40625 186.703125 54.328125 186.890625 52.207031 186.890625 C 26.789062 186.890625 6.191406 166.289062 6.191406 140.863281 C 6.191406 115.441406 26.789062 94.820312 52.207031 94.820312 C 77.625 94.820312 98.246094 115.441406 98.246094 140.863281 C 98.246094 155.445312 91.417969 168.433594 80.832031 176.875 C 202.894531 375.457031 310.128906 386.992188 395.539062 123.515625 C 376.648438 117.796875 362.878906 100.261719 362.878906 79.476562 C 362.878906 54.054688 383.476562 33.453125 408.894531 33.453125 C 434.3125 33.453125 454.933594 54.054688 454.933594 79.476562 C 454.933594 100.402344 440.980469 118.027344 421.882812 123.632812 C 499.359375 369.507812 603.132812 388.191406 733.175781 179.621094 C 720.398438 171.457031 711.886719 157.152344 711.886719 140.863281 C 711.886719 115.441406 732.507812 94.820312 757.925781 94.820312 C 783.34375 94.820312 803.941406 115.441406 803.941406 140.863281 Z M 803.941406 140.863281 "/></g></g></svg>