<?xml version="1.0" encoding="utf-8" ?><svg xmlns="http://www.w3.org/2000/svg" xmlns:xlink="http://www.w3.org/1999/xlink" width="176" height="214" viewBox="0 0 176 214"><path d="M36.3591 28.0006C48.211 27.4295 53.5265 30.2783 61.6954 37.7739L88.7734 63.0387C95.0318 68.8401 100.729 74.0863 106.86 80.0948C108.403 78.9144 115.617 72.0226 116.635 70.5594C115.163 69.2856 113.911 67.9438 112.51 66.6119C108.341 62.6469 102.531 57.7567 98.9429 53.45C102.026 50.8499 104.975 48.2147 107.923 45.448L119.516 34.6419C120.323 33.905 124.332 29.9328 124.915 29.9738C126.595 31.5151 135.053 43.5637 135.272 44.4634C134.937 44.6175 131.41 45.1718 130.247 45.5994C127.649 46.5553 120.085 51.4437 118.89 53.9213C119.499 55.6578 130.093 64.5117 131.769 66.586C132.776 67.832 136.908 70.3467 135.628 71.5565C129.381 77.4598 123.147 83.3293 117.036 89.379L117.906 90.1715C120.505 92.5633 123.003 95.0386 125.568 97.459L151.95 122.396C160.289 130.134 165.471 136.498 166.159 148.607C167.194 166.847 154.216 184.45 135.288 185.318C123.622 185.853 117.457 182.667 109.334 175.187C105.058 171.391 100.944 167.432 96.7832 163.505L71.1071 139.385C69.1866 137.585 67.3913 135.861 65.4309 134.071C62.8545 137.242 58.5478 140.758 55.6037 143.754C61.4337 149.809 68.2453 154.885 73.973 161.422C68.0772 166.856 62.2363 172.371 56.5979 177.962C44.8557 189.127 27.2469 187.463 16.449 175.987C1.78339 160.4 3.5152 137.258 18.6563 122.749C20.1433 121.324 28.4064 112.061 29.6953 113.508C32.667 116.465 35.8505 119.2 38.7064 122.267C39.0727 122.693 37.73 123.419 37.4179 123.706C34.129 126.729 31.1733 129.735 27.8633 132.78C15.6098 144.056 17.5459 166.763 34.7626 171.934C45.3143 174.745 47.5248 165.64 54.6344 161.422C53.2653 159.628 49.2995 155.979 47.5297 154.361L39.7539 147.132C38.7205 146.154 36.7686 144.544 36.0196 143.496C36.1153 142.881 53.713 126.432 55.6037 124.631C52.6338 122.501 49.9917 119.626 47.3295 117.122L24.8993 96.3248C20.3709 92.1381 16.4198 88.828 13.1411 83.5951C-0.272459 62.2543 10.1175 30.7876 36.3591 28.0006ZM135.527 171.995C137.228 171.15 139.094 170.665 140.835 169.841C154.491 163.379 156.249 145.016 145.836 134.812C144.328 133.335 142.711 131.957 141.165 130.513L68.1006 62.3594C61.7731 56.3814 55.4854 50.3431 49.0341 44.4946C46.4129 42.1184 41.737 40.7061 38.2153 41.104C20.3975 43.4908 16.0279 66.7746 27.1638 79.7156C29.4037 82.3186 31.6802 84.3523 34.1642 86.6824L112.842 160.162C120.609 167.555 123.934 172.397 135.527 171.995Z"/><path d="M46.6695 61.832C48.1947 62.4061 54.9692 69.3698 56.6795 70.9495L132.264 141.424C133.016 142.142 136.033 144.276 135.076 145.06C131.861 147.697 129.026 150.843 125.897 153.543L125.695 153.639C125.376 153.567 110.805 139.601 109.397 138.266L49.1613 81.7645C45.1693 78.0817 40.9441 74.4934 37.1981 70.5594C40.4383 67.9329 43.5952 64.0694 46.6695 61.832Z"/><path d="M49.6585 5.00629C70.2502 5.34631 71.7134 12.3377 85.3819 24.1334C89.992 20.8761 94.6606 14.9751 99.2834 11.5704C113.993 1.20638 132.868 3.25476 143.55 18.4539C150.761 28.7141 166.105 47.2077 167.37 58.6517C168.845 70.453 165.371 80.9723 157.366 89.93C154.147 93.5327 150.085 96.7111 146.715 100.215C146.11 100.845 145.08 102.02 144.443 102.482C143.673 102.185 135.406 94.024 134.566 92.9229C135.47 91.7889 138.376 89.1932 139.517 88.1572C149.875 78.8583 158.171 68.5938 151.337 53.5459C149.54 49.5889 146.652 45.9515 144.105 42.4335L133.225 27.0539C129.509 21.8497 125.845 18.6019 118.829 18.3276C110.659 18.0081 105.319 24.4135 99.9749 29.5172C95.2663 34.0142 90.6468 38.6762 85.82 42.9988C84.1295 41.6402 81.6571 39.0765 79.9568 37.471L69.7173 27.9479C66.3775 24.8253 63.8393 21.9197 59.5954 19.9898C52.8916 16.9412 50.6993 18.3406 44.5031 20.6026C42.1651 19.2322 33.1184 20.2474 30.6322 20.7906C29.449 21.0492 27.0418 21.9029 26.0269 21.9988L25.9213 21.8937C29.4431 12.9049 40.4295 6.38485 49.6585 5.00629Z"/><path d="M85.3819 171.995C85.5778 172.133 86.2858 172.903 86.54 173.149L100.094 186.122C107.188 192.958 114.363 200.966 125.375 195.39C126.183 194.981 128.772 193.196 129.329 193.081C130.415 192.859 132.586 193.568 134.028 193.48C138.359 193.213 142.669 192.711 146.748 191.15C147.329 191.402 146.45 192.762 146.273 193.164C140.83 205.567 126.848 212.05 113.736 209.951C103.107 208.25 93.1726 199.084 85.82 191.361C84.8076 190.43 83.8138 192.109 82.7841 193.1L73.1597 202.233C57.5258 217.022 30.5553 210.562 24.006 190.967C27.4342 191.828 30.4373 192.87 34.0839 193.018C35.9806 193.451 40.1814 192.654 41.862 193.171C44.5546 194.168 46.4795 195.749 49.3865 196.433C58.8801 198.667 64.9638 191.363 71.0553 185.439L80.34 176.566C81.42 175.526 84.1074 172.737 85.2588 172.066L85.3819 171.995Z"/></svg>